<svg xmlns="http://www.w3.org/2000/svg" version="1.1" xmlns:xlink="http://www.w3.org/1999/xlink" xmlns:svgjs="http://svgjs.com/svgjs" width="1440" height="560" preserveAspectRatio="none" viewBox="0 0 1440 560"><g mask="url(&quot;#SvgjsMask1374&quot;)" fill="none"><path d="M139.9 45.37a5.6 5.6 0 1 0-10.9 2.58 5.6 5.6 0 1 0 10.9-2.58zM124.33 49.05a5.6 5.6 0 1 0-10.9 2.57 5.6 5.6 0 1 0 10.9-2.57zM108.75 52.72a5.6 5.6 0 1 0-10.9 2.58 5.6 5.6 0 1 0 10.9-2.58zM93.18 56.4a5.6 5.6 0 1 0-10.9 2.57 5.6 5.6 0 1 0 10.9-2.57zM167.37 22.45a5.6 5.6 0 1 0-10.9 2.57 5.6 5.6 0 1 0 10.9-2.57zM151.8 26.13a5.6 5.6 0 1 0-10.91 2.57 5.6 5.6 0 1 0 10.91-2.57zM136.22 29.8a5.6 5.6 0 1 0-10.9 2.57 5.6 5.6 0 1 0 10.9-2.57zM120.65 33.48a5.6 5.6 0 1 0-10.9 2.57 5.6 5.6 0 1 0 10.9-2.57z" stroke="rgba(214, 214, 211, 1)" stroke-width="1.54" stroke-dasharray="4, 4"></path><rect width="132" height="132" clip-path="url(&quot;#SvgjsClipPath1375&quot;)" x="208.39" y="289.59" fill="url(#SvgjsPattern1376)" transform="rotate(303.35, 274.39, 355.59)"></rect><rect width="151.20000000000002" height="151.20000000000002" clip-path="url(&quot;#SvgjsClipPath1377&quot;)" x="935.93" y="145.13" fill="url(#SvgjsPattern1378)" transform="rotate(162.17, 1011.53, 220.73)"></rect><path d="M650.73 447.99L641.02 456.34 630.74 448.69 621.03 457.04 610.75 449.4 601.04 457.75 590.77 450.1M650.45 439.99L640.74 448.34 630.46 440.7 620.75 449.05 610.47 441.4 600.76 449.75 590.48 442.11" stroke="rgba(214, 214, 211, 1)" stroke-width="2.9" stroke-dasharray="3, 2"></path><rect width="132" height="132" clip-path="url(&quot;#SvgjsClipPath1379&quot;)" x="80.3" y="118.6" fill="url(#SvgjsPattern1380)" transform="rotate(102.99, 146.3, 184.6)"></rect><path d="M347.56 242.38 L347.46 244.69L346.097071346267 242.122071346267z" fill="rgba(214, 214, 211, 1)"></path><circle r="66.30040943924445" cx="461.18" cy="188.95" fill="rgba(214, 214, 211, 1)"></circle><circle r="46.666666666666664" cx="1217.79" cy="477.34" fill="rgba(214, 214, 211, 1)"></circle><path d="M806.81 441.36a5.6 5.6 0 1 0-11.08 1.61 5.6 5.6 0 1 0 11.08-1.61zM790.98 443.66a5.6 5.6 0 1 0-11.09 1.61 5.6 5.6 0 1 0 11.09-1.61zM775.14 445.96a5.6 5.6 0 1 0-11.08 1.61 5.6 5.6 0 1 0 11.08-1.61zM759.31 448.26a5.6 5.6 0 1 0-11.08 1.61 5.6 5.6 0 1 0 11.08-1.61zM836.18 420.93a5.6 5.6 0 1 0-11.08 1.61 5.6 5.6 0 1 0 11.08-1.61zM820.35 423.23a5.6 5.6 0 1 0-11.09 1.61 5.6 5.6 0 1 0 11.09-1.61zM804.51 425.53a5.6 5.6 0 1 0-11.08 1.61 5.6 5.6 0 1 0 11.08-1.61zM788.68 427.82a5.6 5.6 0 1 0-11.08 1.61 5.6 5.6 0 1 0 11.08-1.61z" fill="rgba(214, 214, 211, 1)"></path><path d="M1439.22 267.25a5.6 5.6 0 1 0 1.45-11.1 5.6 5.6 0 1 0-1.45 11.1zM1441.29 251.39a5.6 5.6 0 1 0 1.45-11.11 5.6 5.6 0 1 0-1.45 11.11zM1443.36 235.52a5.6 5.6 0 1 0 1.45-11.1 5.6 5.6 0 1 0-1.45 11.1zM1445.43 219.66a5.6 5.6 0 1 0 1.45-11.11 5.6 5.6 0 1 0-1.45 11.11zM1450.94 301.06a5.6 5.6 0 1 0 1.45-11.11 5.6 5.6 0 1 0-1.45 11.11zM1453.01 285.19a5.6 5.6 0 1 0 1.45-11.1 5.6 5.6 0 1 0-1.45 11.1zM1455.08 269.33a5.6 5.6 0 1 0 1.45-11.11 5.6 5.6 0 1 0-1.45 11.11zM1457.15 253.46a5.6 5.6 0 1 0 1.45-11.1 5.6 5.6 0 1 0-1.45 11.1z" stroke="rgba(214, 214, 211, 1)" stroke-width="1.26"></path><rect width="125.4" height="125.4" clip-path="url(&quot;#SvgjsClipPath1381&quot;)" x="350.42" y="460.27" fill="url(#SvgjsPattern1382)" transform="rotate(160.47, 413.12, 522.97)"></rect><rect width="251.04000000000002" height="251.04000000000002" clip-path="url(&quot;#SvgjsClipPath1383&quot;)" x="177.53" y="164.52" fill="url(#SvgjsPattern1384)" transform="rotate(45.12, 303.05, 290.04)"></rect></g><defs><mask id="SvgjsMask1374"><rect width="1440" height="560" fill="#ffffff"></rect></mask><pattern x="0" y="0" width="132" height="6" patternUnits="userSpaceOnUse" id="SvgjsPattern1376"><rect width="132" height="3" x="0" y="0" fill="rgba(214, 214, 211, 1)"></rect><rect width="132" height="3" x="0" y="3" fill="rgba(0, 0, 0, 0)"></rect></pattern><clipPath id="SvgjsClipPath1375"><circle r="33" cx="274.39" cy="355.59"></circle></clipPath><pattern x="0" y="0" width="10.8" height="10.8" patternUnits="userSpaceOnUse" id="SvgjsPattern1378"><path d="M0 10.8L5.4 0L10.8 10.8" stroke="rgba(214, 214, 211, 1)" fill="none"></path></pattern><clipPath id="SvgjsClipPath1377"><circle r="37.800000000000004" cx="1011.53" cy="220.73"></circle></clipPath><pattern x="0" y="0" width="6" height="6" patternUnits="userSpaceOnUse" id="SvgjsPattern1380"><path d="M0 6L3 0L6 6" stroke="rgba(214, 214, 211, 1)" fill="none"></path></pattern><clipPath id="SvgjsClipPath1379"><circle r="33" cx="146.3" cy="184.6"></circle></clipPath><pattern x="0" y="0" width="12.54" height="12.54" patternUnits="userSpaceOnUse" id="SvgjsPattern1382"><path d="M6.27 1L6.27 11.54M1 6.27L11.54 6.27" stroke="rgba(214, 214, 211, 1)" fill="none" stroke-width="5.12"></path></pattern><clipPath id="SvgjsClipPath1381"><circle r="31.35" cx="413.12" cy="522.97"></circle></clipPath><pattern x="0" y="0" width="10.46" height="10.46" patternUnits="userSpaceOnUse" id="SvgjsPattern1384"><path d="M0 10.46L5.23 0L10.46 10.46" stroke="rgba(214, 214, 211, 1)" fill="none"></path></pattern><clipPath id="SvgjsClipPath1383"><circle r="62.760000000000005" cx="303.05" cy="290.04"></circle></clipPath></defs></svg>