<svg xmlns="http://www.w3.org/2000/svg" version="1.1" xmlns:xlink="http://www.w3.org/1999/xlink" xmlns:svgjs="http://svgjs.com/svgjs" width="1440" height="560" preserveAspectRatio="none" viewBox="0 0 1440 560"><g mask="url(&quot;#SvgjsMask1219&quot;)" fill="none"><rect width="337.48" height="337.48" clip-path="url(&quot;#SvgjsClipPath1220&quot;)" x="105.44" y="114.44" fill="url(#SvgjsPattern1221)" transform="rotate(169.26, 274.18, 283.18)"></rect><path d="M58.8 257.45L71.57 258.41 73.44 271.08 86.21 272.03 88.08 284.7 100.85 285.66 102.72 298.33" stroke="rgba(204, 15, 15, 1)" stroke-width="2.4"></path><path d="M892.89 21.66L899.02 32.9 889.39 41.35 895.52 52.59 885.9 61.04 892.03 72.29 882.4 80.73M885.01 20.26L891.14 31.5 881.51 39.95 887.65 51.2 878.02 59.64 884.15 70.89 874.53 79.34M877.13 18.86L883.26 30.11 873.64 38.55 879.77 49.8 870.14 58.25 876.27 69.49 866.65 77.94" stroke="rgba(231, 165, 53, 1)" stroke-width="1.96" stroke-dasharray="4, 4"></path><rect width="372" height="372" clip-path="url(&quot;#SvgjsClipPath1222&quot;)" x="569.33" y="211.53" fill="url(#SvgjsPattern1223)" transform="rotate(76.08, 755.33, 397.53)"></rect><path d="M842.62 81.1L835.86 70.22 844.98 61.24 838.22 50.36 847.35 41.38 840.59 30.5 849.71 21.52M850.56 82.04L843.8 71.17 852.93 62.18 846.16 51.31 855.29 42.32 848.53 31.45 857.66 22.46M858.51 82.99L851.74 72.11 860.87 63.13 854.11 52.25 863.24 43.27 856.47 32.39 865.6 23.41" stroke="rgba(204, 15, 15, 1)" stroke-width="1" stroke-dasharray="2, 2"></path><rect width="72" height="72" clip-path="url(&quot;#SvgjsClipPath1224&quot;)" x="1006.37" y="427.75" fill="url(#SvgjsPattern1225)" transform="rotate(22.35, 1042.37, 463.75)"></rect><rect width="190" height="190" clip-path="url(&quot;#SvgjsClipPath1226&quot;)" x="119.44" y="332.49" fill="url(#SvgjsPattern1227)" transform="rotate(352.18, 214.44, 427.49)"></rect><path d="M1306.08 485.87 L1153.6299999999999 533.25L1132.177092949965 411.882092949965z" fill="rgba(204, 15, 15, 1)"></path><rect width="217.6" height="217.6" clip-path="url(&quot;#SvgjsClipPath1228&quot;)" x="1010.03" y="67.84" fill="url(#SvgjsPattern1229)" transform="rotate(153.09, 1118.83, 176.64)"></rect><path d="M674.87 105.91L686.78 101.2 693.99 111.78 705.9 107.06 713.11 117.65 725.02 112.93 732.23 123.51M672.52 113.56L684.43 108.84 691.64 119.43 703.55 114.71 710.76 125.29 722.67 120.58 729.88 131.16" stroke="rgba(231, 165, 53, 1)" stroke-width="1.62"></path><path d="M608.46 427.58a5.6 5.6 0 1 0 0.76 11.18 5.6 5.6 0 1 0-0.76-11.18zM609.55 443.55a5.6 5.6 0 1 0 0.76 11.17 5.6 5.6 0 1 0-0.76-11.17zM610.64 459.51a5.6 5.6 0 1 0 0.76 11.17 5.6 5.6 0 1 0-0.76-11.17zM611.73 475.47a5.6 5.6 0 1 0 0.76 11.18 5.6 5.6 0 1 0-0.76-11.18zM590.32 396.74a5.6 5.6 0 1 0 0.76 11.18 5.6 5.6 0 1 0-0.76-11.18zM591.41 412.71a5.6 5.6 0 1 0 0.76 11.17 5.6 5.6 0 1 0-0.76-11.17zM592.5 428.67a5.6 5.6 0 1 0 0.76 11.17 5.6 5.6 0 1 0-0.76-11.17zM593.59 444.63a5.6 5.6 0 1 0 0.76 11.18 5.6 5.6 0 1 0-0.76-11.18z" stroke="rgba(214, 214, 211, 1)" stroke-width="2.49" stroke-dasharray="4, 4"></path><path d="M1147.26 94.04 L1012.88 247.36L998.4918119604056 89.12181196040565z" stroke="rgba(204, 15, 15, 1)" stroke-width="2.63" stroke-dasharray="2, 2"></path></g><defs><mask id="SvgjsMask1219"><rect width="1440" height="560" fill="#ffffff"></rect></mask><pattern x="0" y="0" width="337.48" height="12.98" patternUnits="userSpaceOnUse" id="SvgjsPattern1221"><rect width="337.48" height="6.49" x="0" y="0" fill="rgba(231, 165, 53, 1)"></rect><rect width="337.48" height="6.49" x="0" y="6.49" fill="rgba(0, 0, 0, 0)"></rect></pattern><clipPath id="SvgjsClipPath1220"><circle r="84.37" cx="274.18" cy="283.18"></circle></clipPath><pattern x="0" y="0" width="372" height="6" patternUnits="userSpaceOnUse" id="SvgjsPattern1223"><rect width="372" height="3" x="0" y="0" fill="rgba(204, 15, 15, 1)"></rect><rect width="372" height="3" x="0" y="3" fill="rgba(0, 0, 0, 0)"></rect></pattern><clipPath id="SvgjsClipPath1222"><circle r="93" cx="755.33" cy="397.53"></circle></clipPath><pattern x="0" y="0" width="72" height="6" patternUnits="userSpaceOnUse" id="SvgjsPattern1225"><rect width="72" height="3" x="0" y="0" fill="rgba(231, 165, 53, 1)"></rect><rect width="72" height="3" x="0" y="3" fill="rgba(0, 0, 0, 0)"></rect></pattern><clipPath id="SvgjsClipPath1224"><circle r="18" cx="1042.37" cy="463.75"></circle></clipPath><pattern x="0" y="0" width="190" height="9.5" patternUnits="userSpaceOnUse" id="SvgjsPattern1227"><rect width="190" height="4.75" x="0" y="0" fill="rgba(214, 214, 211, 1)"></rect><rect width="190" height="4.75" x="0" y="4.75" fill="rgba(0, 0, 0, 0)"></rect></pattern><clipPath id="SvgjsClipPath1226"><circle r="47.5" cx="214.44" cy="427.49"></circle></clipPath><pattern x="0" y="0" width="6.8" height="6.8" patternUnits="userSpaceOnUse" id="SvgjsPattern1229"><path d="M0 6.8L3.4 0L6.8 6.8" stroke="rgba(231, 165, 53, 1)" fill="none"></path></pattern><clipPath id="SvgjsClipPath1228"><circle r="54.4" cx="1118.83" cy="176.64"></circle></clipPath></defs></svg>